# ProBuilder 5.2.3
# https://unity3d.com/unity/features/worldbuilding/probuilder
# 11/9/2024 9:53:31 PM

mtllib ./Prism.mtl
o Prism

g Prism
v 0.1800958 1.473339 0.4566598
v 0.1817545 1.528272 0.4566201
v 0.01995906 1.505685 0.4835014
v 0.181056 1.52829 0.4526395
v 0.01926057 1.505703 0.4795209
v 0.1793973 1.473357 0.4526792

vt -0.001055688 -1.490116E-08
vt 0.2175293 -1.490116E-08
vt 0.1082368 0.4229477
vt -0.001560569 -0.05442335
vt 0.3215479 -0.05442335
vt -0.001560569 0.3824171
vt 0.3215479 0.3824171
vt -0.2175293 -1.490116E-08
vt 0.001055688 -1.490116E-08
vt -0.1082368 0.4229477
vt -0.3215479 -0.0002641354
vt 0.001560569 -0.0002641354
vt -0.3215479 0.4365764
vt 0.001560569 0.4365764
vt -0.001055688 0.001560569
vt 0.2175293 0.001560569
vt -0.001055688 -0.3215479
vt 0.2175293 -0.3215479

vn 0.002161797 -5.637863E-05 0.01231964
vn -0.08787018 0.2462045 0.0157138
vn -0.002161797 5.637863E-05 -0.01231964
vn -0.1025641 -0.2404315 0.01606521
vn 0.3805815 -0.01153739 -0.06351011

usemtl ProBuilderDefault
f 1/1/1 2/2/1 3/3/1
f 4/8/3 6/9/3 5/10/3
f 3/6/2 2/4/2 4/5/2
f 4/5/2 5/7/2 3/6/2
f 5/13/4 6/11/4 1/12/4
f 1/12/4 3/14/4 5/13/4
f 4/18/5 2/16/5 1/15/5
f 1/15/5 6/17/5 4/18/5

